<?xml version="1.0" encoding="UTF-8"?>
<!-- InkBrowser Firefox: an original flame-and-orbit mark, not Mozilla artwork. -->
<svg xmlns="http://www.w3.org/2000/svg" viewBox="0 0 256 256" width="256" height="256">
  <defs>
    <linearGradient id="flame" x1="0" y1="1" x2="1" y2="0"><stop stop-color="#ffb52e"/><stop offset=".5" stop-color="#ff704d"/><stop offset="1" stop-color="#a855f7"/></linearGradient>
    <linearGradient id="orbit" x1="0" y1="0" x2="1" y2="1"><stop stop-color="#fbd38d"/><stop offset="1" stop-color="#8b5cf6"/></linearGradient>
  </defs>
  <circle cx="128" cy="128" r="113" fill="#171225" stroke="#3d285b" stroke-width="6"/>
  <path d="M84 211c-22-16-34-40-32-67 2-31 18-54 46-73-3 19 3 29 16 37 5-27 21-48 47-61-7 22 8 35 25 48 21 17 29 42 22 66-10 36-43 60-81 60-16 0-31-4-43-10z" fill="url(#flame)"/>
  <path d="M73 190c25 15 57 12 77-8 19-19 22-49 7-73 8 27-11 52-35 55-16 2-30-5-40-17-5 17-8 29-9 43z" fill="#201439" opacity=".9"/>
  <circle cx="128" cy="135" r="37" fill="#f8f5ff" stroke="#241447" stroke-width="5"/>
  <circle cx="128" cy="135" r="29" fill="#241447"/>
  <path d="M128 109a26 26 0 0 1 23 13l-23 13-8-13z" fill="#c084fc"/>
  <path d="M151 122a26 26 0 0 1-23 39v-26z" fill="#7c3aed"/>
  <path d="M128 161a26 26 0 0 1-23-39l23 13z" fill="#a855f7"/>
  <path d="M57 70c22-30 56-45 91-39" fill="none" stroke="url(#orbit)" stroke-width="6" stroke-linecap="round"/>
</svg>
